<?xml version="1.0" standalone="no"?>
<!DOCTYPE svg PUBLIC "-//W3C//DTD SVG 20010904//EN"
 "http://www.w3.org/TR/2001/REC-SVG-20010904/DTD/svg10.dtd">
<svg version="1.0" xmlns="http://www.w3.org/2000/svg"
 width="2364.000000pt" height="2364.000000pt" viewBox="0 0 2364.000000 2364.000000"
 preserveAspectRatio="xMidYMid meet">
<metadata>
Created by potrace 1.11, written by Peter Selinger 2001-2013
</metadata>
<g transform="translate(0.000000,2364.000000) scale(0.100000,-0.100000)"
fill="#000000" stroke="none">
<path d="M22717 23634 c-1 -1 -155 -5 -342 -8 -187 -4 -385 -9 -440 -11 -55
-2 -170 -7 -255 -10 -85 -3 -186 -8 -225 -10 -38 -2 -128 -6 -200 -9 -71 -4
-164 -8 -205 -11 -41 -2 -120 -7 -175 -10 -132 -7 -243 -13 -335 -20 -41 -3
-111 -7 -155 -10 -83 -5 -179 -12 -275 -20 -30 -2 -95 -6 -145 -10 -49 -3
-110 -7 -135 -10 -25 -2 -81 -7 -125 -10 -109 -8 -181 -14 -240 -20 -27 -2
-84 -7 -125 -10 -41 -3 -93 -8 -115 -10 -22 -2 -74 -7 -115 -10 -41 -3 -91 -8
-110 -10 -35 -3 -129 -12 -226 -20 -28 -2 -71 -6 -95 -9 -24 -3 -75 -8 -114
-11 -69 -5 -143 -12 -220 -20 -22 -2 -69 -7 -105 -10 -36 -3 -81 -8 -100 -10
-19 -2 -64 -7 -100 -10 -36 -3 -81 -8 -101 -11 -20 -2 -58 -6 -85 -9 -111 -9
-190 -17 -214 -20 -31 -5 -141 -16 -282 -30 -95 -10 -154 -16 -189 -21 -20 -2
-56 -6 -80 -8 -24 -2 -87 -9 -139 -15 -52 -6 -115 -13 -140 -16 -25 -2 -65 -7
-90 -9 -25 -3 -70 -8 -100 -11 -80 -9 -141 -16 -175 -20 -16 -2 -57 -6 -90
-10 -33 -3 -71 -8 -85 -10 -14 -2 -56 -7 -95 -10 -38 -4 -77 -8 -85 -10 -8 -2
-46 -7 -85 -11 -38 -3 -77 -8 -85 -9 -8 -2 -49 -6 -90 -10 -41 -4 -82 -8 -90
-10 -8 -1 -49 -6 -90 -10 -41 -4 -84 -9 -95 -11 -10 -2 -49 -6 -85 -10 -36 -3
-76 -7 -90 -9 -14 -2 -52 -7 -85 -10 -63 -6 -114 -12 -180 -21 -22 -3 -60 -7
-85 -9 -25 -2 -65 -7 -90 -9 -25 -3 -72 -8 -105 -11 -33 -4 -71 -8 -85 -10
-14 -2 -50 -6 -80 -9 -30 -3 -80 -8 -110 -12 -30 -3 -71 -7 -90 -9 -38 -4
-119 -13 -190 -21 -25 -3 -61 -7 -81 -9 -87 -8 -166 -16 -189 -20 -14 -2 -56
-7 -95 -10 -38 -3 -81 -8 -95 -10 -14 -2 -55 -6 -91 -10 -36 -3 -76 -7 -90
-10 -39 -6 -121 -17 -159 -20 -19 -2 -54 -6 -77 -9 -24 -3 -62 -9 -85 -12 -24
-3 -59 -7 -78 -9 -19 -2 -51 -6 -70 -9 -19 -3 -73 -10 -120 -16 -47 -6 -101
-13 -120 -15 -19 -3 -57 -7 -85 -10 -27 -3 -61 -8 -75 -10 -14 -2 -43 -7 -65
-9 -22 -3 -58 -8 -80 -10 -22 -3 -96 -13 -165 -21 -69 -9 -136 -18 -150 -20
-14 -2 -65 -9 -115 -15 -49 -6 -106 -13 -125 -16 -50 -7 -111 -15 -140 -19
-14 -2 -52 -6 -85 -10 -33 -3 -67 -7 -75 -10 -8 -2 -40 -6 -71 -10 -31 -3 -65
-7 -75 -9 -11 -2 -46 -7 -79 -10 -56 -7 -94 -12 -155 -21 -14 -2 -52 -7 -85
-10 -33 -4 -67 -8 -75 -10 -8 -2 -42 -7 -75 -11 -33 -3 -69 -8 -80 -10 -11 -2
-42 -6 -70 -9 -27 -4 -61 -8 -75 -10 -34 -5 -77 -11 -265 -35 -88 -12 -173
-23 -190 -25 -140 -20 -339 -46 -380 -50 -27 -3 -61 -8 -75 -10 -43 -7 -163
-24 -225 -31 -33 -3 -62 -8 -65 -9 -3 -2 -37 -6 -75 -10 -39 -4 -72 -9 -75
-10 -3 -2 -37 -6 -75 -10 -39 -4 -72 -9 -75 -10 -3 -2 -34 -6 -69 -10 -34 -4
-72 -8 -84 -11 -12 -2 -60 -9 -107 -15 -47 -6 -96 -12 -110 -14 -88 -12 -188
-26 -205 -29 -11 -2 -45 -7 -75 -11 -30 -3 -66 -8 -80 -10 -65 -9 -188 -27
-210 -30 -14 -2 -50 -7 -80 -10 -30 -3 -62 -8 -70 -10 -8 -2 -44 -7 -80 -10
-35 -4 -67 -8 -70 -10 -3 -2 -29 -6 -59 -10 -30 -4 -62 -8 -71 -10 -9 -2 -41
-6 -71 -10 -30 -3 -79 -10 -109 -15 -30 -5 -77 -12 -105 -15 -27 -3 -57 -8
-65 -10 -8 -2 -40 -6 -71 -10 -31 -3 -67 -8 -79 -10 -12 -2 -48 -7 -79 -10
-31 -4 -63 -8 -71 -10 -8 -2 -33 -6 -55 -9 -67 -9 -120 -16 -140 -20 -11 -2
-47 -7 -80 -11 -32 -4 -67 -8 -76 -10 -9 -2 -40 -6 -70 -10 -30 -3 -65 -8 -79
-10 -47 -9 -92 -15 -210 -30 -19 -3 -69 -10 -110 -16 -41 -6 -88 -12 -105 -14
-48 -6 -118 -16 -145 -20 -14 -2 -62 -9 -107 -15 -46 -6 -97 -13 -115 -15 -18
-3 -58 -8 -88 -11 -132 -15 -252 -80 -290 -158 -28 -58 -29 -124 -6 -256 17
-97 88 -162 215 -195 61 -16 146 -16 271 0 19 3 57 7 84 11 27 3 57 7 66 9 9
2 41 6 71 10 30 3 61 8 69 10 8 2 38 7 65 10 28 3 61 8 75 10 54 9 288 44 335
50 28 3 57 8 65 10 8 2 35 7 60 10 25 3 72 10 105 15 33 5 78 12 100 15 22 3
63 10 90 15 44 8 132 21 230 35 77 10 155 22 195 30 14 3 45 7 70 10 25 3 56
7 70 10 14 2 45 7 70 10 25 4 52 9 60 10 8 2 38 6 65 10 28 4 61 8 75 10 14 2
39 6 55 9 36 6 109 17 150 22 17 2 46 6 65 9 19 3 50 8 67 10 18 3 47 7 63 10
28 4 52 7 150 21 19 3 76 12 125 19 50 8 113 17 140 20 28 3 75 10 105 15 97
16 294 44 380 55 25 3 86 12 135 19 50 8 110 17 135 20 25 3 104 15 175 25 72
11 132 17 134 15 5 -4 -5 -34 -111 -359 -98 -300 -144 -442 -198 -615 -29 -91
-59 -185 -67 -210 -8 -25 -17 -52 -19 -60 -2 -8 -45 -145 -95 -305 -50 -159
-97 -310 -104 -335 -7 -25 -33 -110 -58 -190 -25 -80 -84 -271 -131 -425 -91
-295 -131 -424 -191 -619 -20 -65 -38 -123 -39 -130 -2 -6 -11 -38 -21 -71
-10 -33 -20 -64 -21 -70 -1 -5 -14 -48 -29 -95 -34 -107 -55 -179 -93 -305
-91 -305 -223 -744 -231 -770 -11 -33 -185 -611 -231 -765 -15 -52 -49 -165
-74 -250 -26 -85 -48 -162 -51 -170 -2 -8 -27 -94 -55 -190 -28 -96 -53 -182
-55 -190 -3 -8 -32 -109 -65 -225 -72 -248 -63 -214 -101 -350 -17 -60 -34
-123 -39 -140 -31 -108 -263 -953 -265 -968 -2 -9 -7 -21 -10 -27 -7 -12 -8
-122 0 -180 28 -221 152 -585 338 -995 30 -66 64 -142 77 -170 38 -86 295
-596 343 -684 26 -46 47 -85 47 -87 0 -14 301 -542 454 -797 55 -93 110 -184
121 -202 50 -85 86 -142 223 -355 75 -116 275 -415 281 -420 4 -3 24 -31 45
-63 21 -32 88 -124 148 -205 315 -419 537 -633 647 -624 25 2 71 38 71 55 0 5
34 114 74 241 68 208 260 827 337 1081 17 55 48 156 69 225 21 69 48 159 60
200 12 41 32 109 45 150 20 68 44 149 51 175 2 6 28 93 58 195 31 102 65 214
76 250 10 36 77 265 149 510 71 245 137 472 147 505 9 33 18 65 20 70 1 6 32
114 69 240 134 462 206 710 210 725 2 8 33 119 70 245 36 127 72 253 80 280
22 80 174 615 190 670 8 28 17 59 19 70 5 21 45 165 71 250 9 28 18 64 21 80
3 16 7 31 9 35 4 6 273 987 280 1020 2 8 11 42 20 75 9 33 25 92 35 130 10 39
42 158 70 265 29 107 54 202 56 210 2 8 26 101 54 205 27 105 52 199 54 211 2
12 13 54 25 95 18 66 127 491 136 529 2 8 20 80 40 160 20 80 39 155 41 167 2
12 9 34 14 48 5 14 8 25 5 25 -2 0 2 18 10 40 8 22 12 40 10 40 -3 0 0 11 5
25 5 14 12 36 14 48 2 12 31 130 65 262 33 132 85 344 115 470 31 127 59 241
63 255 7 29 6 25 26 110 15 60 29 118 117 485 18 72 34 141 36 155 3 14 11 50
19 80 8 30 17 70 20 89 3 19 8 37 10 41 2 3 6 17 9 31 2 13 20 96 40 184 20
88 38 169 40 180 2 11 14 63 26 115 26 116 23 103 59 285 17 83 33 164 36 180
12 63 36 191 40 215 2 14 6 39 9 55 15 83 46 284 48 314 3 41 14 46 138 61 52
6 109 13 125 15 17 3 86 12 155 20 69 9 142 18 163 20 20 3 56 7 80 10 23 3
53 8 67 10 14 2 57 7 95 11 39 3 72 8 75 9 3 2 41 6 85 10 44 4 83 9 86 11 3
1 34 6 70 9 35 3 75 7 89 10 14 2 50 7 80 10 54 6 94 10 168 20 20 2 60 7 87
10 55 6 102 11 215 25 41 5 100 12 130 15 30 3 71 8 90 10 19 2 60 7 90 10
100 11 225 25 260 30 14 2 54 6 90 10 36 4 76 8 90 10 14 2 54 6 90 10 36 3
81 8 100 10 19 2 58 7 85 9 28 3 88 10 135 16 47 5 114 12 150 15 36 3 81 8
100 10 19 2 62 7 95 10 33 3 76 8 95 10 82 9 167 18 195 20 17 1 68 5 115 9
47 4 92 9 100 11 8 2 53 7 100 10 47 4 93 9 102 10 10 2 55 7 101 10 45 3 98
8 117 10 31 4 89 9 210 20 19 2 69 6 110 9 41 4 95 9 120 11 25 3 74 7 110 10
36 3 92 8 125 10 33 3 80 8 105 10 25 2 83 7 130 10 47 4 101 8 120 10 19 2
78 6 130 10 52 4 106 8 120 10 14 2 68 7 120 10 52 4 115 8 140 10 25 3 86 7
135 10 50 3 110 7 135 10 41 4 94 8 290 20 36 2 99 7 140 10 41 2 113 7 160
10 47 3 114 7 150 10 36 2 115 7 175 10 61 4 135 8 165 10 77 6 358 20 605 30
258 12 350 14 730 20 204 3 397 8 430 11 193 18 294 103 300 255 4 86 -24 149
-93 210 -77 68 -242 138 -334 142 -27 1 -50 1 -51 1z"/>
<path d="M7408 13125 c-23 -27 -43 -92 -173 -575 -50 -186 -274 -1018 -286
-1060 -7 -25 -13 -49 -15 -55 -1 -5 -16 -63 -34 -128 -17 -64 -33 -125 -35
-135 -5 -19 -23 -90 -30 -112 -4 -16 -92 -348 -141 -532 l-28 -107 -165 -115
c-150 -103 -431 -303 -456 -323 -5 -5 -32 -24 -60 -43 -27 -19 -52 -37 -55
-40 -3 -3 -95 -73 -205 -154 -186 -139 -594 -449 -640 -487 -11 -10 -110 -88
-220 -174 -389 -307 -805 -661 -1125 -960 -244 -229 -278 -260 -420 -400 -412
-406 -791 -810 -1055 -1125 -44 -52 -82 -97 -85 -100 -4 -3 -70 -86 -149 -185
-79 -99 -149 -188 -157 -198 -226 -283 -644 -901 -817 -1208 -13 -24 -34 -62
-47 -84 -119 -211 -270 -552 -350 -795 -34 -104 -87 -282 -95 -320 -2 -8 -10
-45 -19 -81 -8 -37 -17 -78 -20 -90 -2 -13 -7 -42 -11 -64 -4 -22 -9 -49 -11
-60 -9 -47 -23 -144 -28 -195 -3 -30 -8 -81 -12 -112 -13 -136 -20 -511 -10
-598 3 -19 7 -62 10 -95 16 -158 29 -240 62 -375 80 -329 242 -656 444 -895
321 -381 785 -675 1380 -874 99 -34 330 -98 410 -116 79 -17 180 -38 200 -41
14 -2 34 -6 45 -9 23 -5 258 -41 330 -50 70 -9 109 -13 195 -20 41 -3 92 -8
113 -11 210 -24 975 -24 1016 0 3 2 29 6 58 10 28 3 82 12 121 20 453 96 866
303 1288 647 116 95 149 125 323 299 275 274 442 465 728 835 88 112 261 357
347 490 33 50 72 110 89 135 120 181 312 508 486 830 116 214 483 962 547
1115 9 22 34 77 55 123 21 45 93 212 160 370 67 158 127 301 134 317 116 269
486 1264 540 1450 53 182 54 472 4 850 -17 124 -17 128 -24 165 -3 19 -8 49
-11 65 -33 207 -85 454 -155 745 -17 69 -32 132 -34 140 -2 8 -13 50 -24 93
-12 42 -30 112 -42 155 -11 42 -27 100 -34 127 -18 66 -119 417 -139 480 -182
585 -467 1418 -542 1582 -8 17 -14 35 -14 39 0 20 -287 720 -385 939 -95 212
-258 545 -336 685 -99 179 -221 347 -281 387 -55 37 -83 39 -110 8z m-1194
-4022 c-38 -107 -175 -575 -188 -648 -1 -5 -5 -19 -9 -30 -3 -11 -9 -31 -11
-45 -3 -14 -31 -124 -61 -245 -31 -121 -63 -246 -71 -279 -27 -108 -105 -400
-145 -543 -22 -78 -42 -150 -43 -160 -5 -21 -197 -700 -226 -793 -49 -161
-101 -336 -105 -350 -6 -25 -74 -252 -89 -300 -17 -49 -134 -428 -172 -554
-13 -44 -49 -159 -80 -255 -31 -97 -79 -246 -106 -331 -286 -894 -507 -1463
-808 -2075 -176 -359 -385 -715 -542 -925 -439 -587 -791 -829 -1158 -799 -88
7 -175 29 -245 60 -27 12 -55 23 -61 24 -65 14 -313 233 -452 400 -173 207
-277 413 -348 692 -26 105 -52 235 -60 308 -3 27 -8 61 -10 75 -17 93 -24 398
-12 515 8 73 26 207 33 246 3 13 7 41 10 64 16 111 78 359 137 550 82 267 247
651 378 880 12 22 43 76 67 120 98 173 224 377 346 560 80 119 275 395 286
405 3 3 39 49 80 103 41 54 79 104 85 110 6 7 31 39 56 72 25 32 52 66 60 75
8 8 33 38 55 65 22 28 47 57 55 65 8 8 47 53 87 100 39 47 86 101 104 120 17
19 70 78 118 129 291 320 661 686 996 986 43 39 83 75 89 80 21 20 222 192
351 301 116 98 609 502 725 593 24 20 51 41 60 48 14 12 251 198 315 248 27
22 304 234 384 295 85 64 146 110 148 110 1 0 -9 -30 -23 -67z"/>
</g>
</svg>
